<svg xmlns="http://www.w3.org/2000/svg" width="14" height="15" viewBox="0 0 14 15"><g><g><path d="M13.985 9.815a.23.23 0 0 1-.164.168l-2.4.803v2.563c0 .09-.035.162-.106.218-.082.056-.162.067-.238.033l-2.4-.787L7.2 14.89a.255.255 0 0 1-.214.109.256.256 0 0 1-.213-.11l-1.48-2.076-2.398.787c-.077.034-.156.023-.238-.033a.264.264 0 0 1-.107-.218v-2.563l-2.4-.803a.23.23 0 0 1-.163-.168c-.028-.095-.017-.176.033-.243l1.478-2.076L.02 5.419a.27.27 0 0 1-.033-.243.23.23 0 0 1 .164-.167l2.399-.804V1.642c0-.09.035-.162.107-.218.082-.056.161-.066.238-.033l2.399.787L6.772.101a.25.25 0 0 1 .213-.1c.093 0 .165.033.214.1l1.479 2.077 2.399-.787c.076-.033.156-.023.238.033a.263.263 0 0 1 .107.218v2.563l2.399.804a.229.229 0 0 1 .164.167c.027.09.016.17-.033.243l-1.479 2.077 1.48 2.076c.048.067.06.148.032.243zm-2.267-2.32c0-.653-.125-1.277-.374-1.871a4.85 4.85 0 0 0-1.01-1.54 4.75 4.75 0 0 0-1.512-1.03 4.545 4.545 0 0 0-1.836-.382c-.641 0-1.253.127-1.837.381a4.75 4.75 0 0 0-1.511 1.03 4.85 4.85 0 0 0-1.01 1.54 4.795 4.795 0 0 0-.375 1.873c0 .653.125 1.277.374 1.871.25.595.586 1.108 1.01 1.54.425.433.93.777 1.512 1.031a4.551 4.551 0 0 0 1.837.381 4.55 4.55 0 0 0 1.836-.38 4.757 4.757 0 0 0 1.511-1.031 4.85 4.85 0 0 0 1.01-1.54c.25-.595.375-1.22.375-1.872z"/></g></g></svg>